Coordinates
version=1
nRows=8
nColumns=36
inDegrees=yes

Units are S.I. units (second, meters, Newtons, ...)
If the header above contains a line with 'inDegrees', this indicates whether rotational values are in degrees (yes) or radians (no).

endheader
time	pelvis_tilt	pelvis_list	pelvis_rotation	pelvis_tx	pelvis_ty	pelvis_tz	hip_flexion_r	hip_adduction_r	hip_rotation_r	knee_angle_r	knee_angle_r_beta	ankle_angle_r	subtalar_angle_r	mtp_angle_r	hip_flexion_l	hip_adduction_l	hip_rotation_l	knee_angle_l	knee_angle_l_beta	ankle_angle_l	subtalar_angle_l	mtp_angle_l	lumbar_extension	lumbar_bending	lumbar_rotation	arm_flex_r	arm_add_r	arm_rot_r	elbow_flex_r	pro_sup_r	arm_flex_l	arm_add_l	arm_rot_l	elbow_flex_l	pro_sup_l
     29.93333330	     -5.14846236	     -0.18665932	     -7.15339786	      0.44646235	      0.88939716	      0.73396622	     42.10867987	      1.85438547	     -1.40224021	     23.95198956	      0.41804108	     10.54631352	     -2.38020834	     -7.49999987	     -0.80351711	      2.84816614	     -5.89739689	     15.14457239	      0.26432265	     26.03112060	      1.31742757	     -7.49999987	     -7.34060270	     -0.55709110	     -6.83543837	      2.78739901	     -7.72285961	      2.35288578	     16.60021553	     88.68900814	     18.87096885	    -16.90548795	      8.37570144	     31.17072098	     90.34429793
     29.95000000	     -5.92713418	     -0.24722001	     -6.59499505	      0.44917102	      0.88802688	      0.73453503	     43.15943535	      1.80884402	     -2.06952404	     23.54955778	      0.41101732	     10.92879656	     -0.76030324	     -7.49999987	     -0.46673726	      2.65343808	     -6.40977386	     15.88269376	      0.27720530	     26.97777819	      2.96182493	     -7.49999987	     -6.58840042	     -0.22387450	     -7.34761531	      3.03051288	     -7.85034340	      2.39383552	     16.16789653	     86.95304092	     19.20104738	    -16.80328741	      8.62807304	     31.34944802	     88.55304099
     29.96666670	     -6.43177453	     -0.30674477	     -6.14689026	      0.45298073	      0.88796422	      0.73584152	     43.48546848	      1.85315118	     -2.53897559	     23.85215247	      0.41629859	     10.50938709	     -0.20036154	     -7.49999987	     -0.33621687	      2.48499923	     -6.74710045	     16.76124678	      0.29253894	     27.49042228	      4.12387422	     -7.49999987	     -6.11762446	      0.08809033	     -7.43098527	      2.98712250	     -8.10424808	      1.18733266	     16.09902717	     91.41835043	     19.61674578	    -16.39430655	      8.81446408	     31.29804631	     92.21311241
     29.98333330	     -6.52168817	     -0.21349160	     -5.80919866	      0.45742740	      0.88899496	      0.73768839	     43.07988918	      1.79861632	     -2.88529330	     24.77287559	      0.43236824	      9.31526357	     -0.18203288	     -7.49999987	     -0.67826238	      2.61042325	     -6.67715013	     17.40049785	      0.30369598	     27.30348600	      4.58091563	     -7.49999987	     -6.05688853	      0.14190849	     -7.57772250	      3.03510967	     -8.35958746	      1.12638161	     15.98071787	     91.42746353	     19.63200563	    -15.97604242	      8.91224128	     31.33617629	     92.22104781
     30.00000000	     -6.28696339	     -0.10281246	     -5.50243458	      0.46308112	      0.89079197	      0.74035629	     42.02613117	      1.85104344	     -2.71869643	     25.73741534	      0.44920264	      7.15300632	     -1.52494088	     -7.49999987	     -1.20159235	      2.70894083	     -7.07916841	     18.31704848	      0.31969281	     27.05349776	      5.98484986	     -7.49999987	     -6.20320927	      0.15748579	     -7.49034527	      3.20882650	     -8.51163909	      0.92444349	     15.26836289	     91.51370606	     19.58108151	    -15.49485507	      9.36853516	     30.80476431	     92.29687351
     30.01666670	     -5.99773188	      0.04283693	     -5.23725337	      0.47060897	      0.89295570	      0.74387866	     40.86945557	      1.89045527	     -2.46805574	     26.93046506	      0.47002528	      5.08794529	     -2.75457338	     -7.49999987	     -1.56336749	      2.86446760	     -7.40698985	     19.57684466	      0.34168040	     25.88308073	      6.65531867	     -7.49999987	     -6.36387850	      0.04946108	     -7.18063504	      3.25346267	     -8.71309840	      0.76926185	     14.64248620	     91.57001931	     19.28555650	    -14.93517295	      9.86079996	     30.21374091	     92.33953556
     30.03333330	     -5.68837611	     -0.00189421	     -5.11367725	      0.48002371	      0.89479071	      0.74847474	     39.55575087	      2.22827770	     -2.13515489	     28.15620059	      0.49141841	      3.53347731	     -4.20274358	     -7.49999987	     -1.46798473	      2.66504041	     -8.11636245	     21.94468703	      0.38300704	     24.18298266	      7.35972999	     -7.49999987	     -6.31532570	      0.10380493	     -6.60487753	      3.26965617	     -8.87002856	      0.54227470	     14.01127919	     91.65170441	     18.70256288	    -14.34537225	     10.51278879	     29.24962203	     92.39711626
     30.05000000	     -5.42791329	     -0.31303106	     -4.84736295	      0.48957037	      0.89518568	      0.75300771	     38.19012362	      2.80016433	     -1.77812949	     29.59903279	      0.51660058	      3.05897117	     -5.32291799	     -7.49999987	     -0.60093922	      1.88951063	     -9.03217532	     25.89396110	      0.45193488	     21.96981253	      7.89487876	     -7.49999987	     -5.95400895	      0.40545007	     -5.75846726	      2.95489952	     -9.05213160	     -0.43077367	     13.72059266	     92.19851855	     18.17935688	    -13.65455504	     12.02882396	     27.81777735	     92.55257837
